<svg xmlns="http://www.w3.org/2000/svg" xmlns:xlink="http://www.w3.org/1999/xlink" version="1.1" width="1000" height="1000" viewBox="0 0 1000 1000" xml:space="preserve">
<defs>
</defs>
<rect x="0" y="0" width="100%" height="100%" fill="#ffffff"/>
<g transform="matrix(0.9091 0 0 0.9091 500.0045 500.0045)" id="670422">
<g style="" vector-effect="non-scaling-stroke">
		<g transform="matrix(1 0 0 1 0 0)">
<rect style="stroke: none; stroke-width: 1; stroke-dasharray: none; stroke-linecap: butt; stroke-dashoffset: 0; stroke-linejoin: miter; stroke-miterlimit: 4; is-custom-font: none; font-file-url: none; fill: rgb(255,255,255); fill-rule: nonzero; opacity: 1;" x="-500" y="-500" rx="500" ry="500" width="1000" height="1000"/>
</g>
		<g transform="matrix(1.7578 0 0 1.7578 -220.2963 -0.0012)" id="Layer_1">
<path style="stroke: none; stroke-width: 1; stroke-dasharray: none; stroke-linecap: butt; stroke-dashoffset: 0; stroke-linejoin: miter; stroke-miterlimit: 4; is-custom-font: none; font-file-url: none; fill: rgb(255,255,255); fill-rule: nonzero; opacity: 1;" transform=" translate(-130.677, -256)" d="M 228.077 256 c 0 -53.793 -43.606 -97.4 -97.4 -97.4 c -53.796 0 -97.4 43.606 -97.4 97.4 s 43.604 97.4 97.4 97.4 C 184.471 353.4 228.077 309.793 228.077 256 z" stroke-linecap="round"/>
</g>
		<g transform="matrix(1.7578 0 0 1.7578 220.2906 -0.0012)" id="Layer_1">
<path style="stroke: none; stroke-width: 1; stroke-dasharray: none; stroke-linecap: butt; stroke-dashoffset: 0; stroke-linejoin: miter; stroke-miterlimit: 4; is-custom-font: none; font-file-url: none; fill: rgb(255,255,255); fill-rule: nonzero; opacity: 1;" transform=" translate(-381.322, -256)" d="M 478.722 256 c 0 -53.793 -43.604 -97.4 -97.4 -97.4 c -53.793 0 -97.4 43.606 -97.4 97.4 s 43.606 97.4 97.4 97.4 C 435.118 353.4 478.722 309.793 478.722 256 z" stroke-linecap="round"/>
</g>
		<g transform="matrix(1.7578 0 0 1.7578 -299.1946 30.5627)" id="Layer_1">
<path style="stroke: none; stroke-width: 1; stroke-dasharray: none; stroke-linecap: butt; stroke-dashoffset: 0; stroke-linejoin: miter; stroke-miterlimit: 4; is-custom-font: none; font-file-url: none; fill: rgb(15,23,45); fill-opacity: 0.9; fill-rule: nonzero; opacity: 1;" transform=" translate(-85.792, -273.3869)" d="M 80.056 264.346 l -3.307 3.308 c -4.079 4.081 -4.079 10.697 0.002 14.777 c 2.041 2.04 4.714 3.059 7.387 3.059 c 2.675 0 5.35 -1.021 7.39 -3.062 l 3.307 -3.308 c 4.079 -4.081 4.079 -10.697 -0.002 -14.777 S 84.136 260.264 80.056 264.346 z" stroke-linecap="round"/>
</g>
		<g transform="matrix(1.7578 0 0 1.7578 141.3228 30.5627)" id="Layer_1">
<path style="stroke: none; stroke-width: 1; stroke-dasharray: none; stroke-linecap: butt; stroke-dashoffset: 0; stroke-linejoin: miter; stroke-miterlimit: 4; is-custom-font: none; font-file-url: none; fill: rgb(15,23,45); fill-opacity: 0.9; fill-rule: nonzero; opacity: 1;" transform=" translate(-336.3975, -273.3869)" d="M 330.662 264.346 l -3.307 3.308 c -4.079 4.081 -4.079 10.697 0.002 14.777 c 2.041 2.04 4.714 3.059 7.387 3.059 c 2.675 0 5.35 -1.021 7.389 -3.062 l 3.307 -3.308 c 4.079 -4.081 4.079 -10.697 -0.002 -14.777 C 341.358 260.263 334.742 260.264 330.662 264.346 z" stroke-linecap="round"/>
</g>
		<g transform="matrix(1.7578 0 0 1.7578 -0.0021 -0.0013)" id="Layer_1">
<path style="stroke: none; stroke-width: 1; stroke-dasharray: none; stroke-linecap: butt; stroke-dashoffset: 0; stroke-linejoin: miter; stroke-miterlimit: 4; is-custom-font: none; font-file-url: none; fill: rgb(15,23,45); fill-opacity: 0.9; fill-rule: nonzero; opacity: 1;" transform=" translate(-256.001, -256)" d="M 501.551 237.942 h -13.899 c -8.618 -50.901 -53.013 -89.791 -106.329 -89.791 c -33.293 0 -63.106 15.166 -82.905 38.949 c -8.493 -14.628 -24.32 -24.491 -42.418 -24.491 s -33.925 9.864 -42.418 24.491 c -19.799 -23.783 -49.613 -38.949 -82.905 -38.949 c -53.316 0 -97.712 38.89 -106.329 89.791 H 10.449 C 4.678 237.942 0 242.62 0 248.391 c 0 5.771 4.678 10.449 10.449 10.449 h 12.418 c 1.511 58.161 49.292 105.009 107.812 105.009 c 59.468 0 107.849 -48.381 107.849 -107.849 c 0 -16.651 -3.795 -32.433 -10.563 -46.526 c 1.108 -14.503 13.255 -25.968 28.037 -25.968 s 26.928 11.465 28.036 25.968 c -6.767 14.094 -10.563 29.875 -10.563 46.526 c 0 59.468 48.381 107.849 107.849 107.849 c 58.518 0 106.301 -46.848 107.812 -105.009 h 12.417 c 5.771 0 10.449 -4.678 10.449 -10.449 C 512 242.62 507.322 237.942 501.551 237.942 z M 130.677 342.951 c -8.073 0 -15.883 -1.13 -23.305 -3.198 l 69.867 -69.866 c 4.08 -4.08 4.081 -10.697 0.001 -14.777 c -4.081 -4.08 -10.697 -4.08 -14.777 0 l -75.822 75.82 C 60.985 315.794 43.727 287.882 43.727 256 c 0 -47.945 39.006 -86.951 86.951 -86.951 c 13.062 0 25.451 2.913 36.578 8.096 l -63.296 63.297 c -4.08 4.08 -4.08 10.697 0 14.777 c 2.041 2.041 4.715 3.061 7.388 3.061 s 5.349 -1.021 7.388 -3.061 l 66.697 -66.698 c 19.625 15.956 32.194 40.273 32.194 67.48 C 217.628 303.945 178.622 342.951 130.677 342.951 z M 381.322 342.951 c -8.04 0 -15.821 -1.12 -23.217 -3.172 l 69.893 -69.892 c 4.08 -4.08 4.081 -10.697 0 -14.777 c -4.081 -4.08 -10.697 -4.08 -14.777 0 l -75.864 75.863 c -25.695 -15.126 -42.987 -43.06 -42.987 -74.971 c 0 -47.945 39.006 -86.951 86.951 -86.951 c 13.052 0 25.431 2.909 36.552 8.083 l -63.307 63.308 c -4.08 4.08 -4.08 10.697 0 14.777 c 2.041 2.041 4.715 3.061 7.388 3.061 c 2.674 0 5.349 -1.021 7.388 -3.061 l 66.714 -66.715 c 19.638 15.956 32.216 40.281 32.216 67.497 C 468.273 303.945 429.267 342.951 381.322 342.951 z" stroke-linecap="round"/>
</g>
</g>
</g>
</svg>